<svg xmlns="http://www.w3.org/2000/svg" width="24" height="24" viewBox="0 0 24 24" fill="none" stroke="white" stroke-width="2" stroke-linecap="round" stroke-linejoin="round">
  <path d="M12 2C8.5 2 6 4.5 6 7c0 1.5.5 2.5 1.5 3.5"/>
  <path d="M6 7c-2 0-4 1.5-4 4s2 4 4 4"/>
  <path d="M6 15c0 2.5 2 5 6 5"/>
  <path d="M12 2c3.5 0 6 2.5 6 5 0 1.5-.5 2.5-1.5 3.5"/>
  <path d="M18 7c2 0 4 1.5 4 4s-2 4-4 4"/>
  <path d="M18 15c0 2.5-2 5-6 5"/>
  <path d="M12 2v20"/>
  <circle cx="9" cy="8" r="1" fill="currentColor" stroke="none"/>
  <circle cx="15" cy="8" r="1" fill="currentColor" stroke="none"/>
  <circle cx="7" cy="12" r="1" fill="currentColor" stroke="none"/>
  <circle cx="17" cy="12" r="1" fill="currentColor" stroke="none"/>
</svg>
